<svg xmlns="http://www.w3.org/2000/svg" xmlns:xlink="http://www.w3.org/1999/xlink" width="500" zoomAndPan="magnify" viewBox="0 0 375 374.999991" height="500" preserveAspectRatio="xMidYMid meet" version="1.0"><defs><g/></defs><g fill="#e63946" fill-opacity="1"><g transform="translate(-7.029205, 302.172995)"><g><path d="M 80 -105.921875 L 80 -39.265625 C 80 -29.878906 80.984375 -23.085938 82.953125 -18.890625 C 84.929688 -14.691406 88.390625 -11.847656 93.328125 -10.359375 C 98.265625 -8.878906 106.289062 -7.894531 117.40625 -7.40625 L 117.40625 0 C 104.5625 -0.738281 86.414062 -1.109375 62.96875 -1.109375 C 41.726562 -1.109375 25.925781 -0.738281 15.5625 0 L 15.5625 -7.40625 C 24.445312 -7.894531 30.925781 -8.878906 35 -10.359375 C 39.070312 -11.847656 41.847656 -14.691406 43.328125 -18.890625 C 44.804688 -23.085938 45.546875 -29.878906 45.546875 -39.265625 L 45.546875 -222.953125 C 45.546875 -232.335938 44.804688 -239.128906 43.328125 -243.328125 C 41.847656 -247.523438 39.070312 -250.363281 35 -251.84375 C 30.925781 -253.320312 24.445312 -254.3125 15.5625 -254.8125 L 15.5625 -262.21875 C 25.925781 -261.476562 40.984375 -261.109375 60.734375 -261.109375 L 100.734375 -261.46875 C 105.429688 -261.71875 110.738281 -261.84375 116.65625 -261.84375 C 145.550781 -261.84375 167.648438 -255.238281 182.953125 -242.03125 C 198.265625 -228.820312 205.921875 -211.109375 205.921875 -188.890625 C 205.921875 -175.304688 202.894531 -162.28125 196.84375 -149.8125 C 190.789062 -137.34375 180.539062 -126.910156 166.09375 -118.515625 C 151.65625 -110.117188 132.460938 -105.921875 108.515625 -105.921875 Z M 107.40625 -254.8125 C 99.75 -254.8125 94.003906 -253.945312 90.171875 -252.21875 C 86.347656 -250.488281 83.695312 -247.398438 82.21875 -242.953125 C 80.738281 -238.515625 80 -231.847656 80 -222.953125 L 80 -113.328125 L 104.8125 -113.328125 C 129.007812 -113.328125 145.738281 -119.804688 155 -132.765625 C 164.257812 -145.734375 168.890625 -163.082031 168.890625 -184.8125 C 168.890625 -208.757812 164.132812 -226.410156 154.625 -237.765625 C 145.113281 -249.128906 129.375 -254.8125 107.40625 -254.8125 Z M 107.40625 -254.8125 "/></g></g></g><g fill="#e63946" fill-opacity="1"><g transform="translate(194.674932, 311.167856)"><g><path d="M 173.328125 -226.84375 C 171.835938 -211.675781 171.09375 -198.003906 171.09375 -185.828125 C 171.09375 -175.148438 171.410156 -166.390625 172.046875 -159.546875 L 164.6875 -159.546875 C 162.976562 -175.992188 160.835938 -188.222656 158.265625 -196.234375 C 155.703125 -204.242188 151.21875 -210.117188 144.8125 -213.859375 C 138.40625 -217.597656 128.582031 -219.46875 115.34375 -219.46875 L 95.15625 -219.46875 C 87.46875 -219.46875 81.859375 -218.878906 78.328125 -217.703125 C 74.804688 -216.523438 72.40625 -214.117188 71.125 -210.484375 C 69.84375 -206.859375 69.203125 -200.988281 69.203125 -192.875 L 69.203125 -114.0625 L 92.59375 -114.0625 C 100.070312 -114.0625 105.835938 -115.820312 109.890625 -119.34375 C 113.953125 -122.863281 116.675781 -127.023438 118.0625 -131.828125 C 119.445312 -136.640625 120.566406 -142.675781 121.421875 -149.9375 L 122.390625 -156.34375 L 129.765625 -156.34375 C 129.117188 -147.375 128.796875 -137.335938 128.796875 -126.234375 L 128.796875 -110.859375 C 128.796875 -99.960938 129.4375 -84.796875 130.71875 -65.359375 L 123.34375 -65.359375 C 123.132812 -66.859375 122.492188 -72.035156 121.421875 -80.890625 C 120.359375 -89.753906 117.421875 -96.429688 112.609375 -100.921875 C 107.804688 -105.410156 101.132812 -107.65625 92.59375 -107.65625 L 69.203125 -107.65625 L 69.203125 -33.96875 C 69.203125 -25.84375 70.054688 -19.960938 71.765625 -16.328125 C 73.472656 -12.703125 76.460938 -10.25 80.734375 -8.96875 C 85.003906 -7.6875 91.945312 -6.832031 101.5625 -6.40625 L 101.5625 0 C 90.457031 -0.644531 74.757812 -0.96875 54.46875 -0.96875 C 36.09375 -0.96875 22.421875 -0.644531 13.453125 0 L 13.453125 -6.40625 C 21.140625 -6.832031 26.742188 -7.6875 30.265625 -8.96875 C 33.796875 -10.25 36.203125 -12.703125 37.484375 -16.328125 C 38.765625 -19.960938 39.40625 -25.84375 39.40625 -33.96875 L 39.40625 -192.875 C 39.40625 -200.988281 38.765625 -206.859375 37.484375 -210.484375 C 36.203125 -214.117188 33.796875 -216.578125 30.265625 -217.859375 C 26.742188 -219.140625 21.140625 -219.992188 13.453125 -220.421875 L 13.453125 -226.84375 C 34.390625 -226.195312 65.363281 -225.875 106.375 -225.875 C 137.769531 -225.875 160.085938 -226.195312 173.328125 -226.84375 Z M 173.328125 -226.84375 "/></g></g></g></svg>