<svg xmlns="http://www.w3.org/2000/svg" xmlns:xlink="http://www.w3.org/1999/xlink" width="500" zoomAndPan="magnify" viewBox="0 0 375 374.999991" height="500" preserveAspectRatio="xMidYMid meet" version="1.0"><defs><g/></defs><g fill="#000000" fill-opacity="1"><g transform="translate(97.521179, 256.870719)"><g><path d="M 63.84375 -68.125 L 63.84375 -26.671875 C 63.84375 -20.328125 64.515625 -15.6875 65.859375 -12.75 C 67.210938 -9.8125 69.59375 -7.863281 73 -6.90625 C 76.414062 -5.957031 81.859375 -5.398438 89.328125 -5.234375 L 89.328125 0 C 69.796875 -0.476562 55.265625 -0.71875 45.734375 -0.71875 C 37.796875 -0.71875 27.789062 -0.554688 15.71875 -0.234375 L 8.09375 0 L 8.09375 -4.765625 C 13.332031 -5.078125 17.179688 -5.707031 19.640625 -6.65625 C 22.109375 -7.613281 23.78125 -9.441406 24.65625 -12.140625 C 25.53125 -14.847656 25.96875 -19.21875 25.96875 -25.25 L 25.96875 -143.390625 C 25.96875 -149.429688 25.53125 -153.800781 24.65625 -156.5 C 23.78125 -159.195312 22.109375 -161.019531 19.640625 -161.96875 C 17.179688 -162.925781 13.332031 -163.566406 8.09375 -163.890625 L 8.09375 -168.640625 C 16.195312 -168.171875 28.269531 -167.9375 44.3125 -167.9375 L 70.75 -168.171875 C 73.925781 -168.328125 77.578125 -168.40625 81.703125 -168.40625 C 103.140625 -168.40625 119.492188 -164.15625 130.765625 -155.65625 C 142.046875 -147.164062 147.6875 -135.773438 147.6875 -121.484375 C 147.6875 -112.742188 145.460938 -104.363281 141.015625 -96.34375 C 136.566406 -88.332031 129.0625 -81.625 118.5 -76.21875 C 107.945312 -70.820312 93.9375 -68.125 76.46875 -68.125 Z M 78.609375 -163.890625 C 74.316406 -163.890625 71.175781 -163.332031 69.1875 -162.21875 C 67.207031 -161.101562 65.820312 -159.113281 65.03125 -156.25 C 64.238281 -153.394531 63.84375 -149.109375 63.84375 -143.390625 L 63.84375 -72.890625 L 74.078125 -72.890625 C 86.941406 -72.890625 95.832031 -77.015625 100.75 -85.265625 C 105.675781 -93.523438 108.140625 -104.722656 108.140625 -118.859375 C 108.140625 -134.265625 105.875 -145.617188 101.34375 -152.921875 C 96.820312 -160.234375 89.242188 -163.890625 78.609375 -163.890625 Z M 78.609375 -163.890625 "/></g></g></g><g fill="#ffffff" fill-opacity="1"><g transform="translate(167.262781, 280.489472)"><g><path d="M 117.25 -145.890625 C 116.289062 -134.210938 115.8125 -123.773438 115.8125 -114.578125 C 115.8125 -108.117188 116.015625 -102.894531 116.421875 -98.90625 L 111.6875 -98.90625 C 108.9375 -114.425781 104.8125 -125.347656 99.3125 -131.671875 C 93.820312 -137.992188 86.132812 -141.15625 76.25 -141.15625 L 69.4375 -141.15625 C 65.1875 -141.15625 62.097656 -140.8125 60.171875 -140.125 C 58.242188 -139.4375 56.9375 -138.09375 56.25 -136.09375 C 55.5625 -134.101562 55.21875 -130.910156 55.21875 -126.515625 L 55.21875 -74.59375 L 62.4375 -74.59375 C 69.71875 -74.59375 75.242188 -77.269531 79.015625 -82.625 C 82.796875 -87.988281 85.441406 -94.378906 86.953125 -101.796875 L 91.703125 -101.796875 C 91.285156 -96.023438 91.078125 -89.566406 91.078125 -82.421875 L 91.078125 -72.53125 C 91.078125 -65.53125 91.488281 -55.773438 92.3125 -43.265625 L 87.578125 -43.265625 C 84.691406 -61.398438 76.3125 -70.46875 62.4375 -70.46875 L 55.21875 -70.46875 L 55.21875 -23.078125 C 55.21875 -17.585938 55.800781 -13.570312 56.96875 -11.03125 C 58.144531 -8.488281 60.207031 -6.800781 63.15625 -5.96875 C 66.113281 -5.144531 70.820312 -4.664062 77.28125 -4.53125 L 77.28125 0 C 60.375 -0.414062 47.800781 -0.625 39.5625 -0.625 C 32.695312 -0.625 24.039062 -0.484375 13.59375 -0.203125 L 7 0 L 7 -4.125 C 11.539062 -4.394531 14.875 -4.941406 17 -5.765625 C 19.125 -6.585938 20.5625 -8.164062 21.3125 -10.5 C 22.070312 -12.84375 22.453125 -16.625 22.453125 -21.84375 L 22.453125 -124.046875 C 22.453125 -129.265625 22.070312 -133.039062 21.3125 -135.375 C 20.5625 -137.71875 19.125 -139.300781 17 -140.125 C 14.875 -140.945312 11.539062 -141.492188 7 -141.765625 L 7 -145.890625 C 21.84375 -145.484375 44.238281 -145.28125 74.1875 -145.28125 C 94.375 -145.28125 108.726562 -145.484375 117.25 -145.890625 Z M 117.25 -145.890625 "/></g></g></g><g fill="#000000" fill-opacity="1"><g transform="translate(160.838972, 280.040274)"><g><path d="M 117.25 -145.890625 C 116.289062 -134.210938 115.8125 -123.773438 115.8125 -114.578125 C 115.8125 -108.117188 116.015625 -102.894531 116.421875 -98.90625 L 111.6875 -98.90625 C 108.9375 -114.425781 104.8125 -125.347656 99.3125 -131.671875 C 93.820312 -137.992188 86.132812 -141.15625 76.25 -141.15625 L 69.4375 -141.15625 C 65.1875 -141.15625 62.097656 -140.8125 60.171875 -140.125 C 58.242188 -139.4375 56.9375 -138.09375 56.25 -136.09375 C 55.5625 -134.101562 55.21875 -130.910156 55.21875 -126.515625 L 55.21875 -74.59375 L 62.4375 -74.59375 C 69.71875 -74.59375 75.242188 -77.269531 79.015625 -82.625 C 82.796875 -87.988281 85.441406 -94.378906 86.953125 -101.796875 L 91.703125 -101.796875 C 91.285156 -96.023438 91.078125 -89.566406 91.078125 -82.421875 L 91.078125 -72.53125 C 91.078125 -65.53125 91.488281 -55.773438 92.3125 -43.265625 L 87.578125 -43.265625 C 84.691406 -61.398438 76.3125 -70.46875 62.4375 -70.46875 L 55.21875 -70.46875 L 55.21875 -23.078125 C 55.21875 -17.585938 55.800781 -13.570312 56.96875 -11.03125 C 58.144531 -8.488281 60.207031 -6.800781 63.15625 -5.96875 C 66.113281 -5.144531 70.820312 -4.664062 77.28125 -4.53125 L 77.28125 0 C 60.375 -0.414062 47.800781 -0.625 39.5625 -0.625 C 32.695312 -0.625 24.039062 -0.484375 13.59375 -0.203125 L 7 0 L 7 -4.125 C 11.539062 -4.394531 14.875 -4.941406 17 -5.765625 C 19.125 -6.585938 20.5625 -8.164062 21.3125 -10.5 C 22.070312 -12.84375 22.453125 -16.625 22.453125 -21.84375 L 22.453125 -124.046875 C 22.453125 -129.265625 22.070312 -133.039062 21.3125 -135.375 C 20.5625 -137.71875 19.125 -139.300781 17 -140.125 C 14.875 -140.945312 11.539062 -141.492188 7 -141.765625 L 7 -145.890625 C 21.84375 -145.484375 44.238281 -145.28125 74.1875 -145.28125 C 94.375 -145.28125 108.726562 -145.484375 117.25 -145.890625 Z M 117.25 -145.890625 "/></g></g></g></svg>